<svg width="128" height="38" viewBox="0 0 128 38" fill="none" xmlns="http://www.w3.org/2000/svg">
<mask id="mask0_2_34" style="mask-type:alpha" maskUnits="userSpaceOnUse" x="0" y="0" width="128" height="38">
<path d="M127.531 29.2569C129.11 36.8386 127.531 33.2358 109.626 29.7542C101.269 28.1293 111.615 27.7648 64.365 27.2674C17.1149 26.77 1.15025e-05 47.6595 0 31.7437C-6.47014e-06 22.7911 5.15929 -0.087902 65.8384 0.906837C131.988 0.906837 127.531 16.3465 127.531 29.2569Z" fill="#D9D9D9"/>
</mask>
<g mask="url(#mask0_2_34)">
<mask id="path-2-outside-1_2_34" maskUnits="userSpaceOnUse" x="24" y="6" width="14" height="26" fill="black">
<rect fill="white" x="24" y="6" width="14" height="26"/>
<path d="M28.9449 20.6226L24.3134 6.62353H28.3878L30.9995 15.5732H31.0692L33.6809 6.62353H37.4071L32.7755 20.6226V31H28.9449V20.6226Z"/>
</mask>
<path d="M28.9449 20.6226L24.3134 6.62353H28.3878L30.9995 15.5732H31.0692L33.6809 6.62353H37.4071L32.7755 20.6226V31H28.9449V20.6226Z" fill="#FF0000"/>
<path d="M28.9449 20.6226H29.1626L29.1516 20.5542L28.9449 20.6226ZM24.3134 6.62353V6.40588L24.1068 6.69189L24.3134 6.62353ZM28.3878 6.62353L28.5967 6.56256L28.3878 6.40588V6.62353ZM30.9995 15.5732L30.7906 15.6342L30.9995 15.7908V15.5732ZM31.0692 15.5732V15.7908L31.2781 15.6342L31.0692 15.5732ZM33.6809 6.62353V6.40588L33.472 6.56256L33.6809 6.62353ZM37.4071 6.62353L37.6137 6.69189L37.4071 6.40588V6.62353ZM32.7755 20.6226L32.5689 20.5542L32.5579 20.6226H32.7755ZM32.7755 31V31.2176L32.9932 31H32.7755ZM28.9449 31H28.7273L28.9449 31.2176V31ZM29.1516 20.5542L24.52 6.55517L24.1068 6.69189L28.7383 20.691L29.1516 20.5542ZM24.3134 6.84118H28.3878V6.40588H24.3134V6.84118ZM28.1788 6.6845L30.7906 15.6342L31.2085 15.5122L28.5967 6.56256L28.1788 6.6845ZM30.9995 15.7908H31.0692V15.3555H30.9995V15.7908ZM31.2781 15.6342L33.8899 6.6845L33.472 6.56256L30.8602 15.5122L31.2781 15.6342ZM33.6809 6.84118H37.4071V6.40588H33.6809V6.84118ZM37.2004 6.55517L32.5689 20.5542L32.9822 20.691L37.6137 6.69189L37.2004 6.55517ZM32.5579 20.6226V31H32.9932V20.6226H32.5579ZM32.7755 30.7824H28.9449V31.2176H32.7755V30.7824ZM29.1626 31V20.6226H28.7273V31H29.1626Z" fill="#FF0000" mask="url(#path-2-outside-1_2_34)"/>
<mask id="path-4-outside-2_2_34" maskUnits="userSpaceOnUse" x="35" y="5.9" width="14" height="26" fill="black">
<rect fill="white" x="35" y="5.9" width="14" height="26"/>
<path d="M39.41 6.4H44.625L48.615 30.9H44.765L44.065 26.035V26.105H39.69L38.99 30.9H35.42L39.41 6.4ZM43.61 22.78L41.895 10.67H41.825L40.145 22.78H43.61Z"/>
</mask>
<path d="M39.41 6.4H44.625L48.615 30.9H44.765L44.065 26.035V26.105H39.69L38.99 30.9H35.42L39.41 6.4ZM43.61 22.78L41.895 10.67H41.825L40.145 22.78H43.61Z" fill="#FF0000"/>
<path d="M39.41 6.4V6.3L39.3113 6.38393L39.41 6.4ZM44.625 6.4L44.7237 6.38393L44.625 6.3V6.4ZM48.615 30.9V31L48.7137 30.8839L48.615 30.9ZM44.765 30.9L44.666 30.9142L44.765 31V30.9ZM44.065 26.035L44.164 26.0208L43.965 26.035H44.065ZM44.065 26.105V26.205L44.165 26.105H44.065ZM39.69 26.105V26.005L39.591 26.0906L39.69 26.105ZM38.99 30.9V31L39.0889 30.9144L38.99 30.9ZM35.42 30.9L35.3213 30.8839L35.42 31V30.9ZM43.61 22.78V22.88L43.709 22.766L43.61 22.78ZM41.895 10.67L41.994 10.656L41.895 10.57V10.67ZM41.825 10.67V10.57L41.7259 10.6563L41.825 10.67ZM40.145 22.78L40.0459 22.7663L40.145 22.88V22.78ZM39.41 6.5H44.625V6.3H39.41V6.5ZM44.5263 6.41607L48.5163 30.9161L48.7137 30.8839L44.7237 6.38393L44.5263 6.41607ZM48.615 30.8H44.765V31H48.615V30.8ZM44.864 30.8858L44.164 26.0208L43.966 26.0492L44.666 30.9142L44.864 30.8858ZM43.965 26.035V26.105H44.165V26.035H43.965ZM44.065 26.005H39.69V26.205H44.065V26.005ZM39.591 26.0906L38.891 30.8856L39.0889 30.9144L39.7889 26.1194L39.591 26.0906ZM38.99 30.8H35.42V31H38.99V30.8ZM35.5187 30.9161L39.5087 6.41607L39.3113 6.38393L35.3213 30.8839L35.5187 30.9161ZM43.709 22.766L41.994 10.656L41.796 10.684L43.511 22.794L43.709 22.766ZM41.895 10.57H41.825V10.77H41.895V10.57ZM41.7259 10.6563L40.0459 22.7663L40.244 22.7937L41.924 10.6837L41.7259 10.6563ZM40.145 22.88H43.61V22.68H40.145V22.88Z" fill="#FF0000" mask="url(#path-4-outside-2_2_34)"/>
<mask id="path-6-outside-3_2_34" maskUnits="userSpaceOnUse" x="47.9514" y="5.5" width="12" height="24" fill="black">
<rect fill="white" x="47.9514" y="5.5" width="12" height="24"/>
<path d="M53.695 28.8122C52.0302 28.8122 50.7712 28.3439 49.918 27.4075C49.0648 26.4502 48.6382 25.0872 48.6382 23.3183V22.0697H51.8845V23.568C51.8845 24.9831 52.4776 25.6906 53.6638 25.6906C54.2465 25.6906 54.6835 25.5242 54.9748 25.1912C55.287 24.8374 55.443 24.2756 55.443 23.5056C55.443 22.59 55.2349 21.7888 54.8187 21.102C54.4025 20.3945 53.6326 19.5517 52.5088 18.5736C51.0937 17.325 50.1053 16.2013 49.5434 15.2024C48.9815 14.1827 48.7006 13.0381 48.7006 11.7687C48.7006 10.0415 49.1376 8.70965 50.0116 7.7732C50.8856 6.81594 52.1551 6.33731 53.8199 6.33731C55.4639 6.33731 56.7021 6.81594 57.5345 7.7732C58.3877 8.70965 58.8143 10.0623 58.8143 11.8312V12.7364H55.5679V11.6127C55.5679 10.8635 55.4222 10.3224 55.1309 9.98947C54.8396 9.6357 54.4129 9.45882 53.8511 9.45882C52.7065 9.45882 52.1342 10.156 52.1342 11.5502C52.1342 12.341 52.3423 13.0798 52.7586 13.7665C53.1956 14.4532 53.9759 15.2856 55.0997 16.2637C56.5356 17.5123 57.524 18.6464 58.0651 19.6661C58.6062 20.6858 58.8767 21.8824 58.8767 23.2559C58.8767 25.0455 58.4293 26.419 57.5345 27.3763C56.6604 28.3335 55.3806 28.8122 53.695 28.8122Z"/>
</mask>
<path d="M53.695 28.8122C52.0302 28.8122 50.7712 28.3439 49.918 27.4075C49.0648 26.4502 48.6382 25.0872 48.6382 23.3183V22.0697H51.8845V23.568C51.8845 24.9831 52.4776 25.6906 53.6638 25.6906C54.2465 25.6906 54.6835 25.5242 54.9748 25.1912C55.287 24.8374 55.443 24.2756 55.443 23.5056C55.443 22.59 55.2349 21.7888 54.8187 21.102C54.4025 20.3945 53.6326 19.5517 52.5088 18.5736C51.0937 17.325 50.1053 16.2013 49.5434 15.2024C48.9815 14.1827 48.7006 13.0381 48.7006 11.7687C48.7006 10.0415 49.1376 8.70965 50.0116 7.7732C50.8856 6.81594 52.1551 6.33731 53.8199 6.33731C55.4639 6.33731 56.7021 6.81594 57.5345 7.7732C58.3877 8.70965 58.8143 10.0623 58.8143 11.8312V12.7364H55.5679V11.6127C55.5679 10.8635 55.4222 10.3224 55.1309 9.98947C54.8396 9.6357 54.4129 9.45882 53.8511 9.45882C52.7065 9.45882 52.1342 10.156 52.1342 11.5502C52.1342 12.341 52.3423 13.0798 52.7586 13.7665C53.1956 14.4532 53.9759 15.2856 55.0997 16.2637C56.5356 17.5123 57.524 18.6464 58.0651 19.6661C58.6062 20.6858 58.8767 21.8824 58.8767 23.2559C58.8767 25.0455 58.4293 26.419 57.5345 27.3763C56.6604 28.3335 55.3806 28.8122 53.695 28.8122Z" fill="#FF0000"/>
<path d="M49.918 27.4075L49.7723 27.5373L49.7738 27.5389L49.918 27.4075ZM48.6382 22.0697V21.8746L48.4431 22.0697H48.6382ZM51.8845 22.0697H52.0796L51.8845 21.8746V22.0697ZM54.9748 25.1912L54.8285 25.0621L54.828 25.0627L54.9748 25.1912ZM54.8187 21.102L54.6506 21.201L54.6519 21.2031L54.8187 21.102ZM52.5088 18.5736L52.3797 18.7199L52.3807 18.7208L52.5088 18.5736ZM49.5434 15.2024L49.3725 15.2965L49.3734 15.298L49.5434 15.2024ZM50.0116 7.7732L50.1543 7.90633L50.1557 7.90475L50.0116 7.7732ZM57.5345 7.7732L57.3872 7.90125L57.3902 7.9046L57.5345 7.7732ZM58.8143 12.7364V12.9315L59.0094 12.7364H58.8143ZM55.5679 12.7364H55.3728L55.5679 12.9315V12.7364ZM55.1309 9.98947L54.9802 10.1135L54.9841 10.1179L55.1309 9.98947ZM52.7586 13.7665L52.5917 13.8676L52.594 13.8712L52.7586 13.7665ZM55.0997 16.2637L54.9716 16.4109L54.9717 16.4109L55.0997 16.2637ZM58.0651 19.6661L57.8928 19.7576L57.8928 19.7576L58.0651 19.6661ZM57.5345 27.3763L57.3919 27.243L57.3904 27.2447L57.5345 27.3763ZM53.695 28.6171C52.0669 28.6171 50.8677 28.1602 50.0622 27.2761L49.7738 27.5389C50.6746 28.5276 51.9935 29.0072 53.695 29.0072V28.6171ZM50.0636 27.2777C49.2526 26.3677 48.8333 25.0575 48.8333 23.3183H48.4431C48.4431 25.1168 48.8769 26.5327 49.7723 27.5373L50.0636 27.2777ZM48.8333 23.3183V22.0697H48.4431V23.3183H48.8333ZM48.6382 22.2648H51.8845V21.8746H48.6382V22.2648ZM51.6894 22.0697V23.568H52.0796V22.0697H51.6894ZM51.6894 23.568C51.6894 24.2981 51.8417 24.8819 52.1798 25.2853C52.5235 25.6953 53.0307 25.8857 53.6638 25.8857V25.4956C53.1107 25.4956 52.7283 25.3322 52.4789 25.0347C52.2239 24.7305 52.0796 24.2531 52.0796 23.568H51.6894ZM53.6638 25.8857C54.2838 25.8857 54.7824 25.7074 55.1216 25.3197L54.828 25.0627C54.5846 25.3409 54.2091 25.4956 53.6638 25.4956V25.8857ZM55.1211 25.3203C55.4794 24.9143 55.6381 24.2949 55.6381 23.5056H55.248C55.248 24.2562 55.0946 24.7606 54.8285 25.0621L55.1211 25.3203ZM55.6381 23.5056C55.6381 22.5594 55.4227 21.7222 54.9856 21.0009L54.6519 21.2031C55.0471 21.8553 55.248 22.6205 55.248 23.5056H55.6381ZM54.9869 21.0031C54.5547 20.2683 53.7658 19.409 52.6369 18.4265L52.3807 18.7208C53.4993 19.6944 54.2504 20.5207 54.6506 21.2009L54.9869 21.0031ZM52.6379 18.4273C51.23 17.1851 50.2599 16.0782 49.7134 15.1067L49.3734 15.298C49.9506 16.3243 50.9574 17.4649 52.3798 18.7199L52.6379 18.4273ZM49.7143 15.1082C49.1697 14.1199 48.8957 13.0083 48.8957 11.7687H48.5055C48.5055 13.068 48.7934 14.2455 49.3725 15.2965L49.7143 15.1082ZM48.8957 11.7687C48.8957 10.0734 49.3243 8.7956 50.1542 7.90632L49.869 7.64009C48.951 8.62371 48.5055 10.0096 48.5055 11.7687H48.8957ZM50.1557 7.90475C50.9829 6.99876 52.1933 6.5324 53.8199 6.5324V6.14221C52.1168 6.14221 50.7884 6.63312 49.8676 7.64166L50.1557 7.90475ZM53.8199 6.5324C55.4252 6.5324 56.6022 6.9984 57.3872 7.90122L57.6817 7.64518C56.8019 6.63348 55.5025 6.14221 53.8199 6.14221V6.5324ZM57.3902 7.9046C58.1997 8.79303 58.6192 10.0916 58.6192 11.8312H59.0094C59.0094 10.033 58.5756 8.62628 57.6787 7.64181L57.3902 7.9046ZM58.6192 11.8312V12.7364H59.0094V11.8312H58.6192ZM58.8143 12.5413H55.5679V12.9315H58.8143V12.5413ZM55.763 12.7364V11.6127H55.3728V12.7364H55.763ZM55.763 11.6127C55.763 10.8464 55.6155 10.2471 55.2777 9.861L54.9841 10.1179C55.2289 10.3978 55.3728 10.8806 55.3728 11.6127H55.763ZM55.2815 9.86545C54.9448 9.45659 54.4568 9.26372 53.8511 9.26372V9.65391C54.3691 9.65391 54.7343 9.81481 54.9803 10.1135L55.2815 9.86545ZM53.8511 9.26372C53.2375 9.26372 52.7455 9.45246 52.4127 9.85788C52.0859 10.2559 51.9392 10.8313 51.9392 11.5502H52.3293C52.3293 10.8748 52.4687 10.4045 52.7143 10.1055C52.9537 9.81374 53.3201 9.65391 53.8511 9.65391V9.26372ZM51.9392 11.5502C51.9392 12.3772 52.1573 13.1509 52.5917 13.8676L52.9254 13.6654C52.5274 13.0086 52.3293 12.3048 52.3293 11.5502H51.9392ZM52.594 13.8712C53.0462 14.5818 53.8434 15.4289 54.9716 16.4109L55.2278 16.1165C54.1085 15.1424 53.345 14.3246 52.9231 13.6618L52.594 13.8712ZM54.9717 16.4109C56.3997 17.6527 57.3679 18.7684 57.8928 19.7576L58.2374 19.5747C57.6802 18.5245 56.6715 17.3719 55.2277 16.1165L54.9717 16.4109ZM57.8928 19.7576C58.4163 20.7442 58.6816 21.9083 58.6816 23.2559H59.0718C59.0718 21.8566 58.796 20.6274 58.2374 19.5747L57.8928 19.7576ZM58.6816 23.2559C58.6816 25.0144 58.2423 26.3334 57.3919 27.243L57.677 27.5095C58.6163 26.5046 59.0718 25.0767 59.0718 23.2559H58.6816ZM57.3904 27.2447C56.5636 28.1502 55.3432 28.6171 53.695 28.6171V29.0072C55.418 29.0072 56.7572 28.5168 57.6785 27.5078L57.3904 27.2447Z" fill="#FF0000" mask="url(#path-6-outside-3_2_34)"/>
<mask id="path-8-outside-4_2_34" maskUnits="userSpaceOnUse" x="60" y="6" width="12" height="24" fill="black">
<rect fill="white" x="60" y="6" width="12" height="24"/>
<path d="M60.312 6.6H63.832V15.72H67.608V6.6H71.128V29H67.608V18.92H63.832V29H60.312V6.6Z"/>
</mask>
<path d="M60.312 6.6H63.832V15.72H67.608V6.6H71.128V29H67.608V18.92H63.832V29H60.312V6.6Z" fill="#FF0000"/>
<path d="M60.312 6.6V6.4L60.112 6.6H60.312ZM63.832 6.6H64.032L63.832 6.4V6.6ZM63.832 15.72H63.632L63.832 15.92V15.72ZM67.608 15.72V15.92L67.808 15.72H67.608ZM67.608 6.6V6.4L67.408 6.6H67.608ZM71.128 6.6H71.328L71.128 6.4V6.6ZM71.128 29V29.2L71.328 29H71.128ZM67.608 29H67.408L67.608 29.2V29ZM67.608 18.92H67.808L67.608 18.72V18.92ZM63.832 18.92V18.72L63.632 18.92H63.832ZM63.832 29V29.2L64.032 29H63.832ZM60.312 29H60.112L60.312 29.2V29ZM60.312 6.8H63.832V6.4H60.312V6.8ZM63.632 6.6V15.72H64.032V6.6H63.632ZM63.832 15.92H67.608V15.52H63.832V15.92ZM67.808 15.72V6.6H67.408V15.72H67.808ZM67.608 6.8H71.128V6.4H67.608V6.8ZM70.928 6.6V29H71.328V6.6H70.928ZM71.128 28.8H67.608V29.2H71.128V28.8ZM67.808 29V18.92H67.408V29H67.808ZM67.608 18.72H63.832V19.12H67.608V18.72ZM63.632 18.92V29H64.032V18.92H63.632ZM63.832 28.8H60.312V29.2H63.832V28.8ZM60.512 29V6.6H60.112V29H60.512Z" fill="#FF0000" mask="url(#path-8-outside-4_2_34)"/>
<mask id="path-10-outside-5_2_34" maskUnits="userSpaceOnUse" x="73" y="6" width="10" height="24" fill="black">
<rect fill="white" x="73" y="6" width="10" height="24"/>
<path d="M73.312 6.6H82.624V9.8H76.832V16.04H81.376V19.24H76.832V29H73.312V6.6Z"/>
</mask>
<path d="M73.312 6.6H82.624V9.8H76.832V16.04H81.376V19.24H76.832V29H73.312V6.6Z" fill="#FF0000"/>
<path d="M73.312 6.6V6.4L73.112 6.6H73.312ZM82.624 6.6H82.824L82.624 6.4V6.6ZM82.624 9.8V10L82.824 9.8H82.624ZM76.832 9.8V9.6L76.632 9.8H76.832ZM76.832 16.04H76.632L76.832 16.24V16.04ZM81.376 16.04H81.576L81.376 15.84V16.04ZM81.376 19.24V19.44L81.576 19.24H81.376ZM76.832 19.24V19.04L76.632 19.24H76.832ZM76.832 29V29.2L77.032 29H76.832ZM73.312 29H73.112L73.312 29.2V29ZM73.312 6.8H82.624V6.4H73.312V6.8ZM82.424 6.6V9.8H82.824V6.6H82.424ZM82.624 9.6H76.832V10H82.624V9.6ZM76.632 9.8V16.04H77.032V9.8H76.632ZM76.832 16.24H81.376V15.84H76.832V16.24ZM81.176 16.04V19.24H81.576V16.04H81.176ZM81.376 19.04H76.832V19.44H81.376V19.04ZM76.632 19.24V29H77.032V19.24H76.632ZM76.832 28.8H73.312V29.2H76.832V28.8ZM73.512 29V6.6H73.112V29H73.512Z" fill="#FF0000" mask="url(#path-10-outside-5_2_34)"/>
<mask id="path-12-outside-6_2_34" maskUnits="userSpaceOnUse" x="83.674" y="6" width="10" height="23" fill="black">
<rect fill="white" x="83.674" y="6" width="10" height="23"/>
<path d="M83.9245 6.65H87.2795V24.95H92.8V28H83.9245V6.65Z"/>
</mask>
<path d="M83.9245 6.65H87.2795V24.95H92.8V28H83.9245V6.65Z" fill="#FF0000"/>
<path d="M83.9245 6.65V6.45937L83.7339 6.65H83.9245ZM87.2795 6.65H87.4702L87.2795 6.45937V6.65ZM87.2795 24.95H87.0889L87.2795 25.1406V24.95ZM92.8 24.95H92.9907L92.8 24.7594V24.95ZM92.8 28V28.1906L92.9907 28H92.8ZM83.9245 28H83.7339L83.9245 28.1906V28ZM83.9245 6.84062H87.2795V6.45937H83.9245V6.84062ZM87.0889 6.65V24.95H87.4702V6.65H87.0889ZM87.2795 25.1406H92.8V24.7594H87.2795V25.1406ZM92.6094 24.95V28H92.9907V24.95H92.6094ZM92.8 27.8094H83.9245V28.1906H92.8V27.8094ZM84.1152 28V6.65H83.7339V28H84.1152Z" fill="#FF0000" mask="url(#path-12-outside-6_2_34)"/>
<mask id="path-14-outside-7_2_34" maskUnits="userSpaceOnUse" x="94" y="6" width="5" height="24" fill="black">
<rect fill="white" x="94" y="6" width="5" height="24"/>
<path d="M94.312 6.6H97.832V29H94.312V6.6Z"/>
</mask>
<path d="M94.312 6.6H97.832V29H94.312V6.6Z" fill="#FF0000"/>
<path d="M94.312 6.6V6.4L94.112 6.6H94.312ZM97.832 6.6H98.032L97.832 6.4V6.6ZM97.832 29V29.2L98.032 29H97.832ZM94.312 29H94.112L94.312 29.2V29ZM94.312 6.8H97.832V6.4H94.312V6.8ZM97.632 6.6V29H98.032V6.6H97.632ZM97.832 28.8H94.312V29.2H97.832V28.8ZM94.512 29V6.6H94.112V29H94.512Z" fill="#FF0000" mask="url(#path-14-outside-7_2_34)"/>
<mask id="path-16-outside-8_2_34" maskUnits="userSpaceOnUse" x="99.2913" y="6.2219" width="15" height="26" fill="black">
<rect fill="white" x="99.2913" y="6.2219" width="15" height="26"/>
<path d="M104.154 18.606L99.8903 6.55394H103.978L106.586 14.5182H106.656L109.335 6.55394H113L108.736 18.606L113.211 31.2219H109.123L106.304 22.6234H106.234L103.344 31.2219H99.6789L104.154 18.606Z"/>
</mask>
<path d="M104.154 18.606L99.8903 6.55394H103.978L106.586 14.5182H106.656L109.335 6.55394H113L108.736 18.606L113.211 31.2219H109.123L106.304 22.6234H106.234L103.344 31.2219H99.6789L104.154 18.606Z" fill="#FF0000"/>
<path d="M104.154 18.606L104.362 18.6796L104.362 18.5325L104.154 18.606ZM99.8903 6.55394V6.33369L99.6827 6.6274L99.8903 6.55394ZM103.978 6.55394L104.187 6.4854L103.978 6.33369V6.55394ZM106.586 14.5182L106.377 14.5867L106.586 14.7384V14.5182ZM106.656 14.5182V14.7384L106.865 14.5884L106.656 14.5182ZM109.335 6.55394V6.33369L109.126 6.48374L109.335 6.55394ZM113 6.55394L113.207 6.6274L113 6.33369V6.55394ZM108.736 18.606L108.528 18.5325L108.528 18.6796L108.736 18.606ZM113.211 31.2219V31.4422L113.419 31.1483L113.211 31.2219ZM109.123 31.2219L108.914 31.2905L109.123 31.4422V31.2219ZM106.304 22.6234L106.513 22.5547L106.304 22.4031V22.6234ZM106.234 22.6234V22.4031L106.025 22.5532L106.234 22.6234ZM103.344 31.2219V31.4422L103.553 31.2921L103.344 31.2219ZM99.6789 31.2219L99.4713 31.1483L99.6789 31.4422V31.2219ZM104.362 18.5325L100.098 6.48048L99.6827 6.6274L103.947 18.6795L104.362 18.5325ZM99.8903 6.77419H103.978V6.33369H99.8903V6.77419ZM103.769 6.62248L106.377 14.5867L106.795 14.4496L104.187 6.4854L103.769 6.62248ZM106.586 14.7384H106.656V14.2979H106.586V14.7384ZM106.865 14.5884L109.543 6.62414L109.126 6.48374L106.448 14.448L106.865 14.5884ZM109.335 6.77419H113V6.33369H109.335V6.77419ZM112.792 6.48048L108.528 18.5325L108.943 18.6795L113.207 6.6274L112.792 6.48048ZM108.528 18.6796L113.003 31.2955L113.419 31.1483L108.943 18.5324L108.528 18.6796ZM113.211 31.0017H109.123V31.4422H113.211V31.0017ZM109.332 31.1533L106.513 22.5547L106.095 22.692L108.914 31.2905L109.332 31.1533ZM106.304 22.4031H106.234V22.8436H106.304V22.4031ZM106.025 22.5532L103.135 31.1517L103.553 31.2921L106.442 22.6935L106.025 22.5532ZM103.344 31.0017H99.6789V31.4422H103.344V31.0017ZM99.8865 31.2955L104.362 18.6796L103.947 18.5324L99.4713 31.1483L99.8865 31.2955Z" fill="#FF0000" mask="url(#path-16-outside-8_2_34)"/>
</g>
</svg>
