<svg width="26" height="49" viewBox="0 0 26 49" fill="none" xmlns="http://www.w3.org/2000/svg">
<mask id="mask0_25_6" style="mask-type:alpha" maskUnits="userSpaceOnUse" x="0" y="0" width="26" height="49">
<path d="M25.0702 37.8753C25.3986 47.7382 25.0801 43.0518 21.5615 38.5291C19.9192 36.4182 21.9465 35.9401 12.6829 35.3107C3.41936 34.6814 0.116293 61.8641 0.0767291 41.1584C0.0544743 29.5113 1.00897 -0.255149 12.9062 1.01624C25.8735 0.99146 25.0381 21.0794 25.0702 37.8753Z" fill="#D9D9D9"/>
</mask>
<g mask="url(#mask0_25_6)">
<mask id="path-2-outside-1_25_6" maskUnits="userSpaceOnUse" x="5" y="11" width="14" height="26" fill="black">
<rect fill="white" x="5" y="11" width="14" height="26"/>
<path d="M9.94494 25.6225L5.31341 11.6235H9.38776L11.9995 20.5731H12.0692L14.6809 11.6235H18.4071L13.7755 25.6225V36H9.94494V25.6225Z"/>
</mask>
<path d="M9.94494 25.6225L5.31341 11.6235H9.38776L11.9995 20.5731H12.0692L14.6809 11.6235H18.4071L13.7755 25.6225V36H9.94494V25.6225Z" fill="#FF0000"/>
<path d="M9.94494 25.6225H10.1626L10.1516 25.5542L9.94494 25.6225ZM5.31341 11.6235V11.4058L5.10678 11.6919L5.31341 11.6235ZM9.38776 11.6235L9.5967 11.5625L9.38776 11.4058V11.6235ZM11.9995 20.5731L11.7906 20.6341L11.9995 20.7908V20.5731ZM12.0692 20.5731V20.7908L12.2781 20.6341L12.0692 20.5731ZM14.6809 11.6235V11.4058L14.472 11.5625L14.6809 11.6235ZM18.4071 11.6235L18.6137 11.6919L18.4071 11.4058V11.6235ZM13.7755 25.6225L13.5689 25.5542L13.5579 25.6225H13.7755ZM13.7755 36V36.2176L13.9932 36H13.7755ZM9.94494 36H9.72729L9.94494 36.2176V36ZM10.1516 25.5542L5.52004 11.5551L5.10678 11.6919L9.73831 25.6909L10.1516 25.5542ZM5.31341 11.8411H9.38776V11.4058H5.31341V11.8411ZM9.17883 11.6845L11.7906 20.6341L12.2085 20.5122L9.5967 11.5625L9.17883 11.6845ZM11.9995 20.7908H12.0692V20.3555H11.9995V20.7908ZM12.2781 20.6341L14.8899 11.6845L14.472 11.5625L11.8602 20.5122L12.2781 20.6341ZM14.6809 11.8411H18.4071V11.4058H14.6809V11.8411ZM18.2004 11.5551L13.5689 25.5542L13.9822 25.6909L18.6137 11.6919L18.2004 11.5551ZM13.5579 25.6225V36H13.9932V25.6225H13.5579ZM13.7755 35.7823H9.94494V36.2176H13.7755V35.7823ZM10.1626 36V25.6225H9.72729V36H10.1626Z" fill="#FF0000" mask="url(#path-2-outside-1_25_6)"/>
</g>
</svg>
